<?xml version="1.0" encoding="UTF-8"?><svg id="Calque_2" xmlns="http://www.w3.org/2000/svg" viewBox="0 0 220.46 313.81"><defs><style>.cls-1{fill:none;stroke:#000;stroke-miterlimit:10;stroke-width:10px;}</style></defs><g id="Calque_1-2"><path class="cls-1" d="M213.36,218.01H7.1c-1.94,0-2.83-3.23-1.38-4.96L97.88,103.53v-21.11c0-1.1,.78-1.99,1.75-1.99h21.19c.97,0,1.75,.89,1.75,1.99v21.11l92.16,109.52c1.45,1.73,.56,4.96-1.38,4.96Z"/><line class="cls-1" x1="110.23" y1="80.43" x2="110.23"/><path class="cls-1" d="M166.43,218.01c-7.4,24.02-29.76,41.48-56.2,41.48s-48.8-17.46-56.2-41.48h112.4Z"/><line class="cls-1" x1="15.23" y1="255.12" x2="51.52" y2="237.64"/><line class="cls-1" x1="168.95" y1="237.64" x2="205.24" y2="255.12"/><line class="cls-1" x1="51.52" y1="293" x2="73.94" y2="263.76"/><line class="cls-1" x1="146.52" y1="263.76" x2="168.95" y2="293"/><line class="cls-1" x1="110.23" y1="303.51" x2="110.23" y2="274.28"/><line class="cls-1" x1="110.23" y1="274.28" x2="110.23" y2="313.81"/></g></svg>